<?xml version="1.0" encoding="utf-8"?>
<!-- Generator: Adobe Illustrator 25.2.1, SVG Export Plug-In . SVG Version: 6.00 Build 0)  -->
<svg version="1.1" id="Primary_Logo_Horizontal_1-Line"
	 xmlns="http://www.w3.org/2000/svg" xmlns:xlink="http://www.w3.org/1999/xlink" x="0px" y="0px" viewBox="0 0 398.3 77.2"
	 style="enable-background:new 0 0 398.3 77.2;" xml:space="preserve">
<style type="text/css">
	.st0{fill:#F76900;}
</style>
<g>
	<g>
		<path class="st0" d="M78.5,53.5l-1.6-7.7l2.1-0.7c1.3,2.8,3.8,6.4,8.4,6.4c2.9,0,5.8-1.6,5.8-5.3c0-7-14.9-5.5-14.9-14.5
			c0-5.3,4-7.9,8.7-7.9c3.1,0,4.9,1.4,5.5,2.1l0.5-1.4h1.8l1.8,6.9l-2.1,0.7c-1.2-2.7-3.8-5.6-7.5-5.6c-3.2,0-4.7,1.9-4.7,4.3
			c0,6.4,14.9,4.8,14.9,14.4c0,6.5-5.5,9-9.9,9c-2.6,0-4.6-0.8-6.3-2l-0.5,1.4H78.5z"/>
		<path class="st0" d="M104.6,63.2c-1.4,0.6-2.6,0-2.9-1.1l4.4-8.6l-6.7-14.9c-0.5-1.2-0.8-1.5-2.6-1.9V35h8.1v1.7l-2.2,0.5
			l5.1,11.3l5-11.4l-2.1-0.5V35h6.7v1.7c-1.1,0.3-1.9,0.7-2.5,1.9l-7,15.4L104.6,63.2z"/>
		<path class="st0" d="M130.2,39.3c-0.2-0.7-0.9-1.3-1.8-1.3c-1.4,0-2.8,1.2-3.7,2.3v11l2.2,0.5v1.7h-7.5v-1.7l1.8-0.4V38.8
			l-2.2-0.6v-1.5c2.2-0.4,3.2-1.1,4.2-2.5l1.5,0.3l-0.2,4c1-1.8,2.7-4,5.3-4c1.3,0,2.6,0.8,2.6,2.4
			C132.5,38.3,131.3,39.3,130.2,39.3"/>
		<path class="st0" d="M144,48.7v-3.2l-4.3,0.8c-1.1,0.2-2.9,0.9-2.9,2.9c0,1.4,1,2.6,3,2.6C141.8,51.8,143.4,50.4,144,48.7
			 M149.9,51.3l0.4,0.8c-0.1,0.3-1.4,1.9-3.4,1.9c-1.9,0-2.8-1.1-2.9-2.3c-1,1.5-3,2.4-5.4,2.4c-3.7,0-5.4-2.4-5.4-4.4
			c0-3.1,1.9-4.8,5.4-5.4l5.3-1v-4c0-1.6-1.1-2.8-2.8-2.8c-1.7,0-2.5,0.7-3.2,1.5c0.6,2.7-1.8,4-4.1,2.8c0.1-4,4-6.6,7.7-6.6
			c4.3,0,5.9,2.5,5.9,5.8v10.3c0,0.7,0.4,1.2,1.1,1.2C149.2,51.6,149.7,51.4,149.9,51.3"/>
		<path class="st0" d="M167.3,37.9c0,1.3-1.3,2.1-2.5,2.2c-0.7-1.8-1.9-2.9-4.2-2.9c-3.3,0-5.9,2.8-5.9,7.5c0,3.9,2.5,6.5,5.9,6.5
			c2.6,0,4.4-1.2,5.7-2.8l0.9,0.6c-0.7,2.9-3.3,5.4-8,5.4c-4.4,0-8.2-3-8.2-8.7c0-7,5.6-11.1,10.8-11.1
			C164.4,34.4,167.3,35.5,167.3,37.9"/>
		<path class="st0" d="M171.1,37.2l-2.2-0.5V35h5.7v13.1c0,1.9,0.9,2.9,2.6,2.9c1.3,0,3.7-0.6,5.9-2.6V37.2l-2.2-0.5V35h5.7v15.3
			h2.2V52c-1.5,0.4-3,1-4.2,1.9l-1.5-0.3l0.2-3.2c-2.2,2.1-4.7,3.7-7.4,3.7c-2.8,0-4.9-1.9-4.9-4.4V37.2z"/>
		<path class="st0" d="M192.7,53.5h-1.1l-0.9-5.4l1.3-0.3c1.1,2.2,3.2,4.2,5.9,4.2c2.4,0,3.4-1.6,3.4-2.8c0-4.1-10-3.4-10-9.6
			c0-2.9,2.5-5.3,5.7-5.3c1.8,0,3.3,0.6,4.1,1.2l0.2-0.6h1.4l0.8,4.7l-1.3,0.3c-0.6-1.3-2-3.6-4.8-3.6c-1.9,0-2.8,1.2-2.8,2.2
			c0,3.7,9.9,2.8,9.9,9.3c0,3.7-3.2,6.1-6.7,6.1c-1.9,0-4-1.1-4.8-2L192.7,53.5z"/>
		<path class="st0" d="M210.5,42.7l8.6-1.1c0-3.5-1.8-4.9-3.6-4.9C212.2,36.6,210.7,39.4,210.5,42.7 M210.5,45
			c0.2,3.4,2.4,6.1,5.5,6.1c2.7,0,4.5-1.2,5.9-3.2l0.9,0.6c-0.7,3.4-3.6,5.8-7.9,5.8c-4.4,0-8.1-3.1-8.1-8.8c0-7.7,4.6-11,8.9-11
			c4,0,7.3,2.4,7.3,8l-0.7,1.1L210.5,45z"/>
		<path class="st0" d="M257.9,43c0,7.2-4.2,11.4-11.6,11.4c-7.3,0-11.6-4.2-11.6-11.4V26.9l-2.3-0.5v-1.9h8.7v1.9l-2.3,0.5v15.5
			c0,5.6,2.3,9,8.2,9c4.7,0,7.8-3.2,7.8-8.7V26.9l-2.3-0.5v-1.9h7.6v1.9l-2.3,0.5V43z"/>
		<path class="st0" d="M261.1,53.5v-1.7l1.8-0.4V38.8l-2.2-0.6v-1.5c2.2-0.4,3.2-1.1,4.2-2.5l1.5,0.3l-0.2,3.7
			c2.2-2.1,4.7-3.7,7.4-3.7c2.8,0,4.9,1.9,4.9,4.4v12.6l2.2,0.5v1.7h-7.5v-1.7l1.8-0.4v-11c0-1.9-0.9-2.9-2.6-2.9
			c-1.3,0-3.7,0.6-5.9,2.6v11.2l2.2,0.5v1.7H261.1z"/>
		<path class="st0" d="M287.1,26.7c1.2,0,2.2,1,2.2,2.2c0,1.2-1,2.2-2.2,2.2s-2.2-1-2.2-2.2C284.9,27.7,285.9,26.7,287.1,26.7
			 M283.1,53.5v-1.7l2-0.5V38.8l-2.2-0.6v-1.5c2.2-0.4,3.2-1.1,4.2-2.5l1.5,0.3v17l2,0.5v1.7H283.1z"/>
		<path class="st0" d="M291.1,35h8.1v1.7l-2.2,0.5l5.1,11.3l5-11.4l-2.1-0.5V35h6.7v1.7c-1.1,0.3-1.9,0.7-2.5,1.9l-7,15.4h-1.6
			l-6.9-15.3c-0.6-1.2-0.8-1.5-2.6-1.9V35z"/>
		<path class="st0" d="M315.3,42.7l8.6-1.1c0-3.5-1.8-4.9-3.6-4.9C316.9,36.6,315.4,39.4,315.3,42.7 M315.2,45
			c0.2,3.4,2.4,6.1,5.5,6.1c2.7,0,4.5-1.2,5.9-3.2l0.9,0.6c-0.7,3.4-3.6,5.8-7.9,5.8c-4.4,0-8.1-3.1-8.1-8.8c0-7.7,4.6-11,8.9-11
			c4,0,7.3,2.4,7.3,8l-0.7,1.1L315.2,45z"/>
		<path class="st0" d="M340.7,39.3c-0.2-0.7-0.9-1.3-1.8-1.3c-1.4,0-2.8,1.2-3.7,2.3v11l2.2,0.5v1.7h-7.5v-1.7l1.8-0.4V38.8
			l-2.2-0.6v-1.5c2.2-0.4,3.2-1.1,4.2-2.5l1.5,0.3l-0.2,4c1-1.8,2.7-4,5.3-4c1.3,0,2.6,0.8,2.6,2.4C343,38.3,341.8,39.3,340.7,39.3"
			/>
		<path class="st0" d="M345.8,53.5h-1.1l-0.9-5.4l1.3-0.3c1.1,2.2,3.2,4.2,5.9,4.2c2.4,0,3.4-1.6,3.4-2.8c0-4.1-10-3.4-10-9.6
			c0-2.9,2.5-5.3,5.7-5.3c1.8,0,3.3,0.6,4.1,1.2l0.2-0.6h1.4l0.8,4.7l-1.3,0.3c-0.6-1.3-2-3.6-4.8-3.6c-1.9,0-2.8,1.2-2.8,2.2
			c0,3.7,9.9,2.8,9.9,9.3c0,3.7-3.2,6.1-6.7,6.1c-1.9,0-4-1.1-4.8-2L345.8,53.5z"/>
		<path class="st0" d="M363.9,26.7c1.2,0,2.2,1,2.2,2.2c0,1.2-1,2.2-2.2,2.2c-1.2,0-2.2-1-2.2-2.2C361.7,27.7,362.6,26.7,363.9,26.7
			 M359.9,53.5v-1.7l2-0.5V38.8l-2.2-0.6v-1.5c2.2-0.4,3.2-1.1,4.2-2.5l1.5,0.3v17l2,0.5v1.7H359.9z"/>
		<path class="st0" d="M371.1,50.3v-13h-2.9v-1.7c2.4-0.4,4-2.6,4.8-5l1.5,0.3V35h4.8v2.2h-4.8v12.3c0,1.4,0.6,2.1,1.8,2.1
			c0.8,0,1.6-0.5,2.1-1.1l0.9,0.7c-0.5,1.4-2.1,2.9-4.2,2.9C372.9,54.2,371.1,52.8,371.1,50.3"/>
		<path class="st0" d="M384.6,63.2c-1.4,0.6-2.6,0-2.9-1.1l4.4-8.6l-6.7-14.9c-0.5-1.2-1.6-1.4-2.8-1.4h-3.7V35h12v1.7l-2.2,0.5
			l5.1,11.3l5-11.4l-2.1-0.5V35h6.7v1.7c-1.1,0.3-1.9,0.7-2.5,1.9L388,54L384.6,63.2z"/>
	</g>
	<g>
		<path id="XMLID_26_" class="st0" d="M37.7,25.2c1,0,17.6,0,18.5,0V11.7C56,11.4,45.9,1.7,45.6,1.5H12.2c-0.3,0.3-10,9.9-10.3,10.2
			v24.8c0.3,0.3,9.6,9.7,9.9,10h26v14.4H20.6v-8.2c-1,0-17.7,0-18.7,0v13.5c0.3,0.3,10,9.9,10.3,10.2h33.4
			C45.9,76,56,66.4,56.3,66.1V41.3c-0.3-0.3-9.6-9.7-9.9-10H20.6V17h17.2V25.2z"/>
	</g>
</g>
</svg>
